v -0.272542 -0.199998 0.760830
v -0.111922 -0.286946 0.793567
v -0.114018 -0.028492 0.811275
v -0.272161 -0.002387 0.756949
v -0.410539 0.040378 0.657557
v -0.130413 -0.004185 0.828130
v 0.000000 -0.018660 0.818093
v 0.000000 -0.004185 0.828130
v -0.284588 0.021868 0.781023
v -0.454245 0.083120 0.662761
v -0.137417 -0.293650 0.811845
v 0.000000 -0.300438 0.823087
v -0.294382 -0.195396 0.773542
v -0.240712 -0.527576 0.678585
v 0.000000 -0.536090 0.708979
v -0.379197 -0.413740 0.635672
v -0.513399 -0.266434 0.568903
v -0.099057 0.224037 0.809790
v -0.174990 0.136111 0.805129
v -0.309246 0.166091 0.768859
v -0.376887 0.262838 0.703533
v 0.000000 0.217609 0.815216
v -0.000000 0.450736 0.730809
v -0.144457 0.446688 0.722876
v -0.213433 0.334813 0.711895
v -0.616819 -0.104931 0.334308
v -0.625308 -0.350499 0.233505
v -0.580899 -0.303188 0.422265
v -0.565399 0.022306 0.482679
v -0.552423 0.119151 0.478571
v -0.586060 0.113302 0.392331
v -0.590291 0.293307 0.308919
v -0.515681 0.264482 0.474616
v -0.544878 0.461730 0.373631
v -0.000000 0.705252 0.399660
v -0.144457 0.701204 0.391727
v -0.330455 0.448151 0.611737
v -0.261674 0.661565 0.426177
v -0.791572 1.009207 0.030441
v -0.653264 -0.053066 0.010040
v -0.601599 -0.331544 -0.017935
v -0.613724 -0.341238 0.110651
v -0.647578 -0.147727 0.182771
v -0.544878 0.463121 0.179962
v -0.590291 0.294738 0.109827
v -0.266598 -0.744669 0.421749
v 0.000000 -0.759968 0.449729
v -0.417925 -0.656152 0.453243
v -0.563292 -0.508847 0.386475
v -0.649664 -0.530915 -0.060232
v -0.685517 -0.521945 0.206096
v -0.529297 -0.889890 0.422638
v -0.397489 -0.912869 0.406310
v -0.666978 -0.888880 0.347199
v -0.666420 -0.923799 0.152187
v -0.529019 -0.927652 -0.029909
v -0.000000 0.954601 -0.080605
v -0.168831 0.708839 0.055458
v -0.368812 0.581315 -0.006306
v -0.553495 -0.062556 -0.246068
v -0.449337 -0.390117 -0.372522
v -0.624275 0.125823 -0.017172
v -0.562088 0.191979 -0.170932
v -0.434168 -0.534121 -0.279107
v -0.375408 -0.927591 -0.038436
v 0.000000 -0.254464 -0.473729
v -0.228551 -0.350929 -0.483829
v -0.288630 -0.026389 -0.423536
v -0.481823 0.250905 -0.334227
v -0.288630 0.304357 -0.297834
v -0.423040 0.616338 -0.203892
v -0.236549 0.551820 -0.099507
v -0.000000 0.686218 -0.025076
v -0.000000 0.472145 -0.317533
v -0.000000 0.155661 -0.451044
v -0.216961 -0.677133 -0.492024
v -0.175740 -1.006569 -0.396374
v -0.319191 -1.009145 -0.039022
v 0.000000 -1.003415 -0.835369
v 0.000000 -0.633300 -0.556639
v -0.000000 0.466575 -0.463039
v -0.000000 0.093333 -0.545169
v -0.000000 0.779157 -0.252311
v -0.468083 -1.012402 0.414251
v -0.594764 -1.012198 0.385884
v -0.666420 -1.010515 0.151564
v -0.666978 -1.012459 0.422148
v -0.529019 -1.009207 -0.030495
v -0.383368 -1.012929 0.487671
v -0.323495 -1.010630 0.167638
v -0.265042 -0.911160 0.168353
v 0.000000 -1.010317 0.124106
v 0.000000 -0.863116 0.240035
v -0.537580 -1.013216 0.527579
v -0.118884 0.218761 0.778787
v -0.173164 0.141627 0.775056
v -0.302056 0.168010 0.731592
v -0.357679 0.252815 0.683312
v -0.218162 0.314914 0.693815
v -0.321875 0.415363 0.605047
v -0.731573 0.319972 0.309110
v -0.776251 0.186440 0.392857
v -0.776947 0.040027 0.335349
v -0.788860 -0.004185 0.183802
v -0.731573 0.321117 0.082814
v -0.761555 0.038073 0.023103
v -0.765557 0.198523 -0.000375
v -0.899203 0.344783 0.208006
v -0.924949 0.268082 0.221660
v -0.942674 0.190459 0.176288
v -0.932216 0.157982 0.135794
v -0.899203 0.345800 0.066519
v -0.899203 0.345317 0.133712
v -0.935492 0.183472 0.061122
v -0.928256 0.210288 0.051673
v -0.918786 0.245383 0.039307
v -0.934739 0.225210 0.196600
v -0.921478 0.250222 0.129236
v -0.988543 0.354375 0.172200
v -0.985001 0.256869 0.129360
v -0.956274 0.342497 0.090104
v 0.000000 -0.286946 0.793567
v 0.000000 -0.028491 0.811275
v 0.272542 -0.199998 0.760830
v 0.272161 -0.002387 0.756949
v 0.114019 -0.028492 0.811275
v 0.111922 -0.286946 0.793567
v 0.410539 0.040378 0.657557
v 0.130413 -0.004185 0.828130
v 0.284588 0.021868 0.781023
v 0.454246 0.083120 0.662761
v 0.137417 -0.293650 0.811845
v 0.294382 -0.195395 0.773542
v 0.240713 -0.527576 0.678584
v 0.379197 -0.413740 0.635672
v 0.513399 -0.266434 0.568903
v 0.099057 0.224037 0.809790
v 0.174991 0.136111 0.805129
v 0.309246 0.166091 0.768858
v 0.376887 0.262838 0.703532
v 0.144457 0.446688 0.722876
v 0.213433 0.334813 0.711895
v 0.616819 -0.104931 0.334308
v 0.565399 0.022307 0.482679
v 0.580899 -0.303188 0.422265
v 0.625309 -0.350498 0.233505
v 0.586060 0.113302 0.392331
v 0.552423 0.119151 0.478571
v 0.590291 0.293308 0.308919
v 0.544878 0.461730 0.373631
v 0.515681 0.264483 0.474616
v 0.144457 0.701204 0.391727
v 0.330455 0.448152 0.611737
v 0.261673 0.661565 0.426177
v 0.791571 1.009207 0.030440
v 0.653264 -0.053066 0.010039
v 0.647578 -0.147726 0.182770
v 0.613724 -0.341237 0.110651
v 0.601599 -0.331544 -0.017935
v 0.590291 0.294738 0.109827
v 0.544878 0.463122 0.179962
v 0.266599 -0.744668 0.421749
v 0.417926 -0.656152 0.453243
v 0.563292 -0.508846 0.386474
v 0.685518 -0.521944 0.206096
v 0.649664 -0.530914 -0.060232
v 0.397490 -0.912869 0.406310
v 0.529297 -0.889890 0.422637
v 0.666979 -0.888880 0.347199
v 0.666420 -0.923799 0.152187
v 0.529019 -0.927652 -0.029910
v 0.168830 0.708839 0.055457
v 0.368812 0.581316 -0.006306
v 0.449337 -0.390117 -0.372522
v 0.553495 -0.062556 -0.246068
v 0.624274 0.125824 -0.017172
v 0.562088 0.191979 -0.170932
v 0.434168 -0.534121 -0.279107
v 0.375408 -0.927591 -0.038436
v 0.288630 -0.026389 -0.423536
v 0.228551 -0.350929 -0.483829
v 0.481822 0.250905 -0.334227
v 0.288630 0.304357 -0.297834
v 0.423039 0.616339 -0.203892
v 0.236548 0.551820 -0.099507
v 0.216961 -0.677133 -0.492024
v 0.319191 -1.009145 -0.039022
v 0.175740 -1.006569 -0.396374
v 0.468084 -1.012402 0.414251
v 0.594765 -1.012198 0.385884
v 0.666979 -1.012458 0.422148
v 0.666420 -1.010514 0.151563
v 0.529019 -1.009206 -0.030495
v 0.265042 -0.911159 0.168353
v 0.323496 -1.010630 0.167638
v 0.383368 -1.012929 0.487671
v 0.537580 -1.013216 0.527579
v 0.173164 0.141627 0.775056
v 0.118884 0.218761 0.778787
v 0.302056 0.168010 0.731592
v 0.357679 0.252815 0.683311
v 0.218162 0.314915 0.693815
v 0.321875 0.415363 0.605047
v 0.776251 0.186440 0.392856
v 0.731573 0.319972 0.309110
v 0.788860 -0.004184 0.183802
v 0.776947 0.040028 0.335349
v 0.731573 0.321118 0.082813
v 0.765556 0.198523 -0.000375
v 0.761555 0.038074 0.023103
v 0.924949 0.268082 0.221660
v 0.899203 0.344784 0.208006
v 0.932216 0.157982 0.135794
v 0.942674 0.190460 0.176287
v 0.899203 0.345318 0.133712
v 0.899203 0.345800 0.066518
v 0.918786 0.245384 0.039306
v 0.928256 0.210289 0.051673
v 0.935492 0.183472 0.061122
v 0.934739 0.225211 0.196600
v 0.988543 0.354376 0.172199
v 0.921478 0.250223 0.129235
v 0.985000 0.256870 0.129360
v 0.956274 0.342498 0.090104
vn 0.0817 0.4150 0.9062
vn 0.0903 0.6526 0.7523
vn -0.1356 -0.3045 0.9428
vn -0.4585 -0.4628 0.7586
vn -0.4077 -0.2934 0.8647
vn -0.1586 -0.3092 0.9377
vn 0.0000 -0.5698 0.8218
vn 0.0000 -0.2707 0.9627
vn -0.4729 -0.3796 0.7952
vn -0.6095 0.1385 0.7806
vn -0.1909 0.1498 0.9701
vn -0.0000 0.3478 0.9376
vn -0.1271 0.3350 0.9336
vn -0.2894 -0.5311 0.7964
vn 0.0000 -0.6627 0.7489
vn -0.5832 -0.3367 0.7393
vn -0.7868 -0.1433 0.6003
vn -0.3720 0.2244 0.9007
vn -0.4427 0.4997 0.7445
vn -0.0909 0.6638 0.7424
vn -0.0100 0.5985 0.8010
vn 0.0000 0.1631 0.9866
vn 0.0000 0.5132 0.8583
vn -0.2687 0.5587 0.7847
vn -0.7194 -0.1420 0.6799
vn -0.8095 -0.2277 0.5411
vn -0.9880 0.0622 0.1411
vn -0.9353 -0.0806 0.3444
vn -0.9133 0.0477 0.4044
vn -0.8887 0.1859 0.4191
vn -0.6300 0.2284 0.7423
vn -0.6698 0.6481 0.3623
vn -0.8459 0.2348 0.4789
vn -0.8539 0.2207 0.4714
vn -0.0000 0.8273 0.5618
vn -0.2833 0.8426 0.4580
vn -0.3153 0.4296 0.8462
vn -0.1964 0.8077 0.5559
vn -0.8124 0.4015 -0.4228
vn -0.8836 -0.2490 -0.3966
vn -0.9618 0.0182 -0.2732
vn -0.9966 0.0077 -0.0826
vn -0.8995 -0.4335 0.0544
vn -0.9651 0.2110 -0.1552
vn -0.5125 0.7069 -0.4875
vn 0.0419 -0.6785 0.7334
vn 0.0000 -0.8339 0.5519
vn -0.4203 -0.2857 0.8612
vn -0.7934 -0.0919 0.6017
vn -0.9294 0.0142 -0.3687
vn -0.9749 0.1367 0.1756
vn -0.1272 0.0857 0.9882
vn 0.4901 -0.1127 0.8643
vn -0.7629 0.1143 0.6364
vn -0.9402 -0.0609 -0.3352
vn -0.4456 -0.2015 -0.8723
vn -0.0000 0.9662 -0.2579
vn -0.2926 0.7814 -0.5512
vn -0.2162 0.7513 -0.6235
vn -0.8352 -0.0162 -0.5497
vn -0.7163 -0.0781 -0.6935
vn -0.5195 0.1902 -0.8331
vn -0.8843 0.3182 -0.3418
vn -0.6092 -0.4377 -0.6613
vn -0.5778 -0.4010 -0.7108
vn -0.0000 0.0688 -0.9976
vn -0.2612 0.1002 -0.9601
vn -0.4008 0.1509 -0.9037
vn -0.5200 0.4597 -0.7200
vn -0.3010 0.6616 -0.6868
vn -0.2827 0.8463 -0.4516
vn -0.2273 0.8075 -0.5444
vn -0.0000 0.7395 -0.6731
vn -0.0000 0.7492 -0.6624
vn 0.0000 0.4477 -0.8942
vn -0.7009 -0.1108 -0.7046
vn -0.6247 -0.7305 -0.2760
vn -0.1439 -0.9115 -0.3854
vn -0.0000 -0.5026 -0.8645
vn -0.0000 0.2834 -0.9590
vn 0.0000 0.6742 -0.7386
vn 0.0000 0.3526 -0.9358
vn 0.0000 0.9075 -0.4200
vn 0.1097 -0.7109 0.6947
vn -0.2021 -0.8849 0.4198
vn -0.6746 -0.7225 -0.1516
vn -0.5435 -0.4696 0.6958
vn -0.5603 -0.3368 -0.7567
vn 0.3830 -0.2703 0.8833
vn 0.3777 -0.8692 0.3191
vn 0.3507 -0.5953 0.7229
vn 0.0000 -0.9042 0.4270
vn 0.0000 -0.7981 0.6026
vn -0.0816 -0.3171 0.9449
vn -0.7281 0.2179 0.6499
vn -0.2503 0.8746 0.4153
vn 0.1632 0.6866 0.7084
vn 0.4270 0.4141 0.8039
vn -0.5368 0.1370 0.8325
vn -0.3713 -0.0250 0.9282
vn 0.0874 0.9035 0.4195
vn -0.5115 0.0334 0.8586
vn -0.6978 -0.5554 0.4523
vn -0.7139 -0.6943 -0.0914
vn 0.2097 0.9029 -0.3753
vn -0.5160 -0.4841 -0.7067
vn -0.0950 0.1509 -0.9840
vn -0.2613 0.7750 0.5753
vn -0.6595 0.0639 0.7490
vn -0.8350 -0.3250 0.4441
vn -0.7951 -0.6065 0.0007
vn -0.0296 0.8408 -0.5405
vn -0.1535 0.9879 -0.0232
vn -0.6797 -0.3607 -0.6387
vn -0.6842 0.0340 -0.7285
vn -0.4406 0.0967 -0.8925
vn -0.8491 -0.0350 0.5271
vn -0.8786 0.4642 -0.1122
vn -0.9343 0.3329 0.1271
vn -0.9728 0.2288 -0.0372
vn -0.9128 0.3795 -0.1509
vn 0.0000 0.3052 0.9523
vn 0.0000 -0.3310 0.9436
vn -0.0817 0.4150 0.9062
vn 0.4585 -0.4628 0.7586
vn 0.1356 -0.3045 0.9428
vn -0.0903 0.6526 0.7523
vn 0.4076 -0.2934 0.8647
vn 0.1586 -0.3092 0.9377
vn 0.4729 -0.3796 0.7952
vn 0.6095 0.1385 0.7806
vn 0.1909 0.1498 0.9701
vn 0.1271 0.3350 0.9336
vn 0.2894 -0.5311 0.7964
vn 0.5832 -0.3367 0.7393
vn 0.7868 -0.1433 0.6003
vn 0.3720 0.2244 0.9007
vn 0.4427 0.4997 0.7445
vn 0.0909 0.6638 0.7424
vn 0.0100 0.5985 0.8010
vn 0.2687 0.5587 0.7847
vn 0.7194 -0.1420 0.6799
vn 0.8095 -0.2278 0.5411
vn 0.9133 0.0478 0.4044
vn 0.9353 -0.0806 0.3444
vn 0.9880 0.0622 0.1411
vn 0.6300 0.2284 0.7423
vn 0.8887 0.1860 0.4191
vn 0.6698 0.6481 0.3623
vn 0.8539 0.2207 0.4714
vn 0.8459 0.2348 0.4789
vn 0.2833 0.8426 0.4580
vn 0.3153 0.4296 0.8462
vn 0.1964 0.8077 0.5559
vn 0.8124 0.4015 -0.4228
vn 0.8836 -0.2490 -0.3966
vn 0.8995 -0.4335 0.0544
vn 0.9966 0.0077 -0.0826
vn 0.9618 0.0182 -0.2732
vn 0.5125 0.7069 -0.4875
vn 0.9651 0.2110 -0.1552
vn -0.0419 -0.6785 0.7334
vn 0.4203 -0.2857 0.8612
vn 0.7934 -0.0919 0.6017
vn 0.9749 0.1367 0.1756
vn 0.9294 0.0142 -0.3687
vn -0.4901 -0.1127 0.8643
vn 0.1272 0.0857 0.9882
vn 0.7629 0.1143 0.6364
vn 0.9402 -0.0609 -0.3352
vn 0.4456 -0.2014 -0.8723
vn 0.2926 0.7814 -0.5512
vn 0.2162 0.7513 -0.6235
vn 0.7163 -0.0781 -0.6935
vn 0.8352 -0.0162 -0.5497
vn 0.5195 0.1902 -0.8331
vn 0.8843 0.3182 -0.3418
vn 0.6092 -0.4377 -0.6613
vn 0.5778 -0.4010 -0.7108
vn 0.4008 0.1509 -0.9037
vn 0.2612 0.1002 -0.9601
vn 0.5200 0.4596 -0.7200
vn 0.3010 0.6616 -0.6868
vn 0.2827 0.8463 -0.4516
vn 0.2273 0.8075 -0.5444
vn 0.7009 -0.1108 -0.7046
vn 0.1439 -0.9115 -0.3854
vn 0.6247 -0.7305 -0.2760
vn -0.1097 -0.7109 0.6947
vn 0.2021 -0.8849 0.4198
vn 0.5435 -0.4696 0.6958
vn 0.6746 -0.7225 -0.1516
vn 0.5603 -0.3368 -0.7567
vn -0.3507 -0.5953 0.7229
vn -0.3777 -0.8692 0.3191
vn -0.3830 -0.2703 0.8833
vn 0.0816 -0.3171 0.9449
vn 0.2503 0.8746 0.4154
vn 0.7281 0.2179 0.6499
vn -0.1632 0.6866 0.7084
vn -0.4270 0.4141 0.8039
vn 0.5368 0.1370 0.8325
vn 0.3713 -0.0250 0.9282
vn 0.5115 0.0334 0.8586
vn -0.0874 0.9035 0.4195
vn 0.7139 -0.6943 -0.0914
vn 0.6978 -0.5554 0.4523
vn -0.2097 0.9029 -0.3753
vn 0.0950 0.1509 -0.9840
vn 0.5160 -0.4841 -0.7067
vn 0.6595 0.0639 0.7490
vn 0.2613 0.7750 0.5753
vn 0.7951 -0.6065 0.0008
vn 0.8350 -0.3250 0.4441
vn 0.1535 0.9879 -0.0232
vn 0.0296 0.8408 -0.5405
vn 0.4406 0.0967 -0.8925
vn 0.6842 0.0340 -0.7285
vn 0.6797 -0.3607 -0.6387
vn 0.8491 -0.0350 0.5271
vn 0.9343 0.3329 0.1271
vn 0.8786 0.4642 -0.1122
vn 0.9728 0.2288 -0.0372
vn 0.9128 0.3795 -0.1509
s 1
f 1//1 2//2 3//3
f 3//3 4//4 1//1
f 1//1 4//4 5//5
f 6//6 3//3 7//7
f 7//7 8//8 6//6
f 4//4 3//3 6//6
f 6//6 9//9 4//4
f 5//5 4//4 9//9
f 9//9 10//10 5//5
f 2//2 11//11 12//12
f 2//2 1//1 13//13
f 13//13 11//11 2//2
f 1//1 5//5 10//10
f 10//10 13//13 1//1
f 12//12 11//11 14//14
f 14//14 15//15 12//12
f 11//11 13//13 16//16
f 16//16 14//14 11//11
f 13//13 10//10 17//17
f 17//17 16//16 13//13
f 18//18 19//19 6//6
f 9//9 6//6 19//19
f 19//19 20//20 9//9
f 10//10 9//9 20//20
f 20//20 21//21 10//10
f 18//18 22//22 23//23
f 23//23 24//24 18//18
f 6//6 8//8 22//22
f 22//22 18//18 6//6
f 24//24 25//25 18//18
f 26//26 27//27 28//28
f 28//28 29//29 26//26
f 29//29 30//30 31//31
f 31//31 26//26 29//29
f 32//32 33//33 34//34
f 24//24 23//23 35//35
f 35//35 36//36 24//24
f 37//37 24//24 36//36
f 36//36 38//38 37//37
f 34//34 37//37 38//38
f 38//38 39//39 34//34
f 40//40 41//41 42//42
f 42//42 43//43 40//40
f 32//32 34//34 44//44
f 44//44 45//45 32//32
f 34//34 39//39 44//44
f 15//15 14//14 46//46
f 46//46 47//47 15//15
f 14//14 16//16 48//48
f 48//48 46//46 14//14
f 16//16 17//17 49//49
f 49//49 48//48 16//16
f 42//42 41//41 50//50
f 27//27 42//42 50//50
f 27//27 50//50 51//51
f 46//46 48//48 52//52
f 52//52 53//53 46//46
f 48//48 49//49 54//54
f 54//54 52//52 48//48
f 54//54 49//49 51//51
f 51//51 55//55 54//54
f 55//55 51//51 50//50
f 50//50 56//56 55//55
f 36//36 35//35 57//57
f 57//57 58//58 36//36
f 38//38 36//36 58//58
f 39//39 38//38 58//58
f 58//58 59//59 39//39
f 41//41 40//40 60//60
f 60//60 61//61 41//41
f 62//62 45//45 63//63
f 45//45 44//44 63//63
f 44//44 39//39 59//59
f 50//50 41//41 61//61
f 61//61 64//64 50//50
f 56//56 50//50 64//64
f 64//64 65//65 56//56
f 66//66 67//67 68//68
f 68//68 67//67 61//61
f 68//68 61//61 60//60
f 69//69 68//68 60//60
f 69//69 60//60 63//63
f 70//70 69//69 63//63
f 71//71 70//70 63//63
f 72//72 71//71 59//59
f 58//58 72//72 59//59
f 58//58 73//73 72//72
f 72//72 74//74 70//70
f 69//69 70//70 75//75
f 61//61 67//67 76//76
f 61//61 76//76 64//64
f 65//65 76//76 77//77
f 77//77 78//78 65//65
f 76//76 65//65 64//64
f 79//79 76//76 80//80
f 70//70 74//74 81//81
f 71//71 44//44 59//59
f 63//63 44//44 71//71
f 72//72 70//70 71//71
f 73//73 58//58 57//57
f 68//68 69//69 75//75
f 82//82 68//68 75//75
f 74//74 72//72 83//83
f 79//79 77//77 76//76
f 75//75 70//70 81//81
f 83//83 72//72 73//73
f 66//66 68//68 82//82
f 76//76 67//67 80//80
f 80//80 67//67 66//66
f 27//27 51//51 49//49
f 49//49 28//28 27//27
f 53//53 52//52 84//84
f 52//52 54//54 85//85
f 54//54 55//55 86//86
f 86//86 87//87 54//54
f 55//55 56//56 88//88
f 88//88 86//86 55//55
f 56//56 65//65 78//78
f 78//78 88//88 56//56
f 53//53 89//89 90//90
f 90//90 91//91 53//53
f 91//91 90//90 92//92
f 92//92 93//93 91//91
f 93//93 47//47 46//46
f 46//46 91//91 93//93
f 53//53 91//91 46//46
f 54//54 87//87 85//85
f 85//85 94//94 52//52
f 52//52 94//94 84//84
f 84//84 89//89 53//53
f 19//19 18//18 95//95
f 95//95 96//96 19//19
f 20//20 19//19 96//96
f 96//96 97//97 20//20
f 21//21 20//20 97//97
f 97//97 98//98 21//21
f 25//25 99//99 95//95
f 95//95 18//18 25//25
f 37//37 21//21 98//98
f 98//98 100//100 37//37
f 95//95 99//99 97//97
f 97//97 96//96 95//95
f 24//24 37//37 25//25
f 25//25 37//37 100//100
f 100//100 99//99 25//25
f 99//99 100//100 98//98
f 98//98 97//97 99//99
f 33//33 32//32 31//31
f 31//31 30//30 33//33
f 49//49 17//17 28//28
f 17//17 10//10 29//29
f 29//29 28//28 17//17
f 29//29 10//10 30//30
f 10//10 21//21 33//33
f 33//33 30//30 10//10
f 33//33 21//21 37//37
f 37//37 34//34 33//33
f 27//27 26//26 43//43
f 43//43 42//42 27//27
f 40//40 62//62 63//63
f 63//63 60//60 40//40
f 31//31 32//32 101//101
f 101//101 102//102 31//31
f 43//43 26//26 103//103
f 103//103 104//104 43//43
f 32//32 45//45 105//105
f 105//105 101//101 32//32
f 62//62 40//40 106//106
f 106//106 107//107 62//62
f 26//26 31//31 102//102
f 102//102 103//103 26//26
f 40//40 43//43 104//104
f 104//104 106//106 40//40
f 45//45 62//62 107//107
f 107//107 105//105 45//45
f 102//102 101//101 108//108
f 108//108 109//109 102//102
f 103//103 110//110 111//111
f 111//111 104//104 103//103
f 101//101 105//105 112//112
f 101//101 112//112 113//113
f 101//101 113//113 108//108
f 107//107 106//106 114//114
f 107//107 114//114 115//115
f 107//107 115//115 116//116
f 102//102 109//109 117//117
f 102//102 117//117 110//110
f 103//103 102//102 110//110
f 106//106 104//104 111//111
f 111//111 114//114 106//106
f 107//107 116//116 112//112
f 112//112 105//105 107//107
f 113//113 118//118 119//119
f 119//119 108//108 113//113
f 111//111 110//110 120//120
f 120//120 114//114 111//111
f 115//115 118//118 121//121
f 121//121 116//116 115//115
f 117//117 118//118 120//120
f 120//120 110//110 117//117
f 109//109 108//108 119//119
f 112//112 116//116 121//121
f 113//113 112//112 121//121
f 121//121 118//118 113//113
f 117//117 109//109 119//119
f 119//119 118//118 117//117
f 120//120 118//118 115//115
f 115//115 114//114 120//120
f 2//2 12//12 122//122
f 77//77 79//79 92//92
f 90//90 89//89 84//84
f 84//84 94//94 85//85
f 90//90 84//84 85//85
f 85//85 87//87 86//86
f 86//86 88//88 78//78
f 85//85 86//86 78//78
f 90//90 85//85 78//78
f 92//92 90//90 78//78
f 77//77 92//92 78//78
f 3//3 2//2 122//122
f 122//122 123//123 3//3
f 7//7 3//3 123//123
f 124//124 125//125 126//126
f 126//126 127//127 124//124
f 124//124 128//128 125//125
f 129//129 8//8 7//7
f 7//7 126//126 129//129
f 125//125 130//130 129//129
f 129//129 126//126 125//125
f 128//128 131//131 130//130
f 130//130 125//125 128//128
f 127//127 12//12 132//132
f 127//127 132//132 133//133
f 133//133 124//124 127//127
f 124//124 133//133 131//131
f 131//131 128//128 124//124
f 12//12 15//15 134//134
f 134//134 132//132 12//12
f 132//132 134//134 135//135
f 135//135 133//133 132//132
f 133//133 135//135 136//136
f 136//136 131//131 133//133
f 137//137 129//129 138//138
f 130//130 139//139 138//138
f 138//138 129//129 130//130
f 131//131 140//140 139//139
f 139//139 130//130 131//131
f 137//137 141//141 23//23
f 23//23 22//22 137//137
f 129//129 137//137 22//22
f 22//22 8//8 129//129
f 141//141 137//137 142//142
f 143//143 144//144 145//145
f 145//145 146//146 143//143
f 144//144 143//143 147//147
f 147//147 148//148 144//144
f 149//149 150//150 151//151
f 141//141 152//152 35//35
f 35//35 23//23 141//141
f 153//153 154//154 152//152
f 152//152 141//141 153//153
f 150//150 155//155 154//154
f 154//154 153//153 150//150
f 156//156 157//157 158//158
f 158//158 159//159 156//156
f 149//149 160//160 161//161
f 161//161 150//150 149//149
f 150//150 161//161 155//155
f 15//15 47//47 162//162
f 162//162 134//134 15//15
f 134//134 162//162 163//163
f 163//163 135//135 134//134
f 135//135 163//163 164//164
f 164//164 136//136 135//135
f 146//146 165//165 166//166
f 166//166 159//159 158//158
f 146//146 166//166 158//158
f 162//162 167//167 168//168
f 168//168 163//163 162//162
f 163//163 168//168 169//169
f 169//169 164//164 163//163
f 169//169 170//170 165//165
f 165//165 164//164 169//169
f 170//170 171//171 166//166
f 166//166 165//165 170//170
f 152//152 172//172 57//57
f 57//57 35//35 152//152
f 172//172 152//152 154//154
f 155//155 173//173 172//172
f 172//172 154//154 155//155
f 159//159 174//174 175//175
f 175//175 156//156 159//159
f 176//176 177//177 160//160
f 160//160 177//177 161//161
f 161//161 173//173 155//155
f 166//166 178//178 174//174
f 174//174 159//159 166//166
f 171//171 179//179 178//178
f 178//178 166//166 171//171
f 66//66 180//180 181//181
f 180//180 174//174 181//181
f 180//180 175//175 174//174
f 182//182 175//175 180//180
f 182//182 177//177 175//175
f 183//183 177//177 182//182
f 184//184 177//177 183//183
f 185//185 173//173 184//184
f 172//172 173//173 185//185
f 172//172 185//185 73//73
f 185//185 183//183 74//74
f 182//182 75//75 183//183
f 174//174 186//186 181//181
f 174//174 178//178 186//186
f 179//179 187//187 188//188
f 188//188 186//186 179//179
f 186//186 178//178 179//179
f 79//79 80//80 186//186
f 183//183 81//81 74//74
f 184//184 173//173 161//161
f 177//177 184//184 161//161
f 185//185 184//184 183//183
f 73//73 57//57 172//172
f 180//180 75//75 182//182
f 82//82 75//75 180//180
f 74//74 83//83 185//185
f 79//79 186//186 188//188
f 75//75 81//81 183//183
f 83//83 73//73 185//185
f 66//66 82//82 180//180
f 186//186 80//80 181//181
f 80//80 66//66 181//181
f 146//146 145//145 164//164
f 164//164 165//165 146//146
f 167//167 189//189 168//168
f 168//168 190//190 169//169
f 169//169 191//191 192//192
f 192//192 170//170 169//169
f 170//170 192//192 193//193
f 193//193 171//171 170//170
f 171//171 193//193 187//187
f 187//187 179//179 171//171
f 167//167 194//194 195//195
f 195//195 196//196 167//167
f 194//194 93//93 92//92
f 92//92 195//195 194//194
f 93//93 194//194 162//162
f 162//162 47//47 93//93
f 167//167 162//162 194//194
f 169//169 190//190 191//191
f 190//190 168//168 197//197
f 168//168 189//189 197//197
f 189//189 167//167 196//196
f 138//138 198//198 199//199
f 199//199 137//137 138//138
f 139//139 200//200 198//198
f 198//198 138//138 139//139
f 140//140 201//201 200//200
f 200//200 139//139 140//140
f 142//142 137//137 199//199
f 199//199 202//202 142//142
f 153//153 203//203 201//201
f 201//201 140//140 153//153
f 199//199 198//198 200//200
f 200//200 202//202 199//199
f 141//141 142//142 153//153
f 142//142 202//202 203//203
f 203//203 153//153 142//142
f 202//202 200//200 201//201
f 201//201 203//203 202//202
f 151//151 148//148 147//147
f 147//147 149//149 151//151
f 164//164 145//145 136//136
f 136//136 145//145 144//144
f 144//144 131//131 136//136
f 144//144 148//148 131//131
f 131//131 148//148 151//151
f 151//151 140//140 131//131
f 151//151 150//150 153//153
f 153//153 140//140 151//151
f 146//146 158//158 157//157
f 157//157 143//143 146//146
f 156//156 175//175 177//177
f 177//177 176//176 156//156
f 147//147 204//204 205//205
f 205//205 149//149 147//147
f 157//157 206//206 207//207
f 207//207 143//143 157//157
f 149//149 205//205 208//208
f 208//208 160//160 149//149
f 176//176 209//209 210//210
f 210//210 156//156 176//176
f 143//143 207//207 204//204
f 204//204 147//147 143//143
f 156//156 210//210 206//206
f 206//206 157//157 156//156
f 160//160 208//208 209//209
f 209//209 176//176 160//160
f 204//204 211//211 212//212
f 212//212 205//205 204//204
f 207//207 206//206 213//213
f 213//213 214//214 207//207
f 205//205 212//212 215//215
f 205//205 215//215 216//216
f 205//205 216//216 208//208
f 209//209 217//217 218//218
f 209//209 218//218 219//219
f 209//209 219//219 210//210
f 220//220 211//211 204//204
f 214//214 220//220 204//204
f 207//207 214//214 204//204
f 210//210 219//219 213//213
f 213//213 206//206 210//210
f 209//209 208//208 216//216
f 216//216 217//217 209//209
f 215//215 212//212 221//221
f 221//221 222//222 215//215
f 213//213 219//219 223//223
f 223//223 214//214 213//213
f 218//218 217//217 224//224
f 224//224 222//222 218//218
f 220//220 214//214 223//223
f 223//223 222//222 220//220
f 211//211 221//221 212//212
f 216//216 224//224 217//217
f 215//215 222//222 224//224
f 224//224 216//216 215//215
f 220//220 222//222 221//221
f 221//221 211//211 220//220
f 223//223 219//219 218//218
f 218//218 222//222 223//223
f 127//127 122//122 12//12
f 187//187 193//193 192//192
f 192//192 191//191 190//190
f 187//187 192//192 190//190
f 190//190 197//197 189//189
f 189//189 196//196 195//195
f 190//190 189//189 195//195
f 187//187 190//190 195//195
f 187//187 195//195 92//92
f 188//188 187//187 92//92
f 188//188 92//92 79//79
f 126//126 123//123 122//122
f 122//122 127//127 126//126
f 7//7 123//123 126//126
